<svg id="visual" viewBox="0 0 900 600" width="900" height="600" xmlns="http://www.w3.org/2000/svg" xmlns:xlink="http://www.w3.org/1999/xlink" version="1.1"><rect width="900" height="600" fill="#030021"></rect><g><g transform="translate(211 533)"><path d="M0 -42.9L21.5 -37.2L37.2 -21.5L42.9 0L37.2 21.5L21.5 37.2L0 42.9L-21.5 37.2L-37.2 21.5L-42.9 0L-37.2 -21.5L-21.5 -37.2Z" fill="none" stroke="#297EA6" stroke-width="6"></path></g><g transform="translate(394 535)"><path d="M0 -31L15.5 -26.8L26.8 -15.5L31 0L26.8 15.5L15.5 26.8L0 31L-15.5 26.8L-26.8 15.5L-31 0L-26.8 -15.5L-15.5 -26.8Z" fill="none" stroke="#297EA6" stroke-width="6"></path></g><g transform="translate(59 206)"><path d="M0 -40L20 -34.6L34.6 -20L40 0L34.6 20L20 34.6L0 40L-20 34.6L-34.6 20L-40 0L-34.6 -20L-20 -34.6Z" fill="none" stroke="#297EA6" stroke-width="6"></path></g><g transform="translate(337 89)"><path d="M0 -8L4 -6.9L6.9 -4L8 0L6.9 4L4 6.9L0 8L-4 6.9L-6.9 4L-8 0L-6.9 -4L-4 -6.9Z" fill="none" stroke="#297EA6" stroke-width="6"></path></g><g transform="translate(849 386)"><path d="M0 -33L16.5 -28.6L28.6 -16.5L33 0L28.6 16.5L16.5 28.6L0 33L-16.5 28.6L-28.6 16.5L-33 0L-28.6 -16.5L-16.5 -28.6Z" fill="none" stroke="#297EA6" stroke-width="6"></path></g><g transform="translate(493 231)"><path d="M0 -36L18 -31.2L31.2 -18L36 0L31.2 18L18 31.2L0 36L-18 31.2L-31.2 18L-36 0L-31.2 -18L-18 -31.2Z" fill="none" stroke="#297EA6" stroke-width="6"></path></g><g transform="translate(38 595)"><path d="M0 -30L15 -26L26 -15L30 0L26 15L15 26L0 30L-15 26L-26 15L-30 0L-26 -15L-15 -26Z" fill="none" stroke="#297EA6" stroke-width="6"></path></g><g transform="translate(778 42)"><path d="M0 -21L10.5 -18.2L18.2 -10.5L21 0L18.2 10.5L10.5 18.2L0 21L-10.5 18.2L-18.2 10.5L-21 0L-18.2 -10.5L-10.5 -18.2Z" stroke="#297EA6" fill="none" stroke-width="6"></path></g><g transform="translate(490 474)"><path d="M0 -27L13.5 -23.4L23.4 -13.5L27 0L23.4 13.5L13.5 23.4L0 27L-13.5 23.4L-23.4 13.5L-27 0L-23.4 -13.5L-13.5 -23.4Z" stroke="#297EA6" fill="none" stroke-width="6"></path></g></g></svg>